<svg id="图层_1" data-name="图层 1" xmlns="http://www.w3.org/2000/svg" viewBox="0 0 40 40"><defs><style>.cls-1{fill:#3897E3;}</style></defs><title>02</title><path class="cls-1" d="M37.2,6.26a9.42,9.42,0,0,0-14,0l-8.4,8.55a1.44,1.44,0,0,0,.06,2.09A1.58,1.58,0,0,0,17,16.8l8.44-8.58a6.26,6.26,0,0,1,9.44,0,8.33,8.33,0,0,1,0,10.89l-14.67,16L5.49,18.36a7.31,7.31,0,0,1,0-10.15A6.43,6.43,0,0,1,9.85,6.08,6.1,6.1,0,0,1,12,6.33a1.55,1.55,0,0,0,1.93-1,1.47,1.47,0,0,0-1-1.86,9.3,9.3,0,0,0-3.24-.38A9.53,9.53,0,0,0,3.18,6.26a10.23,10.23,0,0,0,0,14l15.8,18,0,0,.13.15a1.59,1.59,0,0,0,2.17.18,1.47,1.47,0,0,0,.49-.74L37.2,21.06A11.18,11.18,0,0,0,37.2,6.26Z"/></svg>