<svg id="图层_1" data-name="图层 1" xmlns="http://www.w3.org/2000/svg" viewBox="0 0 40 40"><defs><style>.cls-1{fill:#3897E3;}</style></defs><title>01</title><path class="cls-1" d="M19.83,8a.45.45,0,0,1,.47,0l2.55,1.61a1.52,1.52,0,0,0,2.07-.43,1.43,1.43,0,0,0-.44-2L21.93,5.54a3.51,3.51,0,0,0-3.73,0L.81,16.52a1.43,1.43,0,0,0-.44,2A1.52,1.52,0,0,0,2.44,19l4.23-2.67v18.1a1.5,1.5,0,0,0,3,0V14.73a1.41,1.41,0,0,0,0-.32Z"/><path class="cls-1" d="M39.32,16.52,29.64,10.4a1.52,1.52,0,0,0-2.07.43,1.43,1.43,0,0,0,.44,2l2.5,1.58a1.41,1.41,0,0,0,0,.32V34.38a1.5,1.5,0,0,0,3,0V16.28L37.69,19a1.52,1.52,0,0,0,2.07-.43A1.43,1.43,0,0,0,39.32,16.52Z"/><path class="cls-1" d="M27.93,21.1a1.52,1.52,0,0,0-2.1.28,6.65,6.65,0,0,1-5.2,2.16,6.78,6.78,0,0,1-5.11-2,1.52,1.52,0,0,0-2.1-.2,1.42,1.42,0,0,0-.21,2,9.72,9.72,0,0,0,7.41,3.1,9.57,9.57,0,0,0,7.58-3.3A1.43,1.43,0,0,0,27.93,21.1Z"/></svg>