<svg id="图层_1" data-name="图层 1" xmlns="http://www.w3.org/2000/svg" viewBox="0 0 40 40"><defs><style>.cls-1{fill:#3897E3;}</style></defs><title>03-01</title><path class="cls-1" d="M39,14.27a9.6,9.6,0,0,0-9.5-9.68h-2a9.36,9.36,0,0,0-15.49-.9,1.55,1.55,0,0,0,.24,2.15,1.48,1.48,0,0,0,2.11-.25,6.42,6.42,0,0,1,10.86,1,1.5,1.5,0,0,0,.4.47,1.48,1.48,0,0,0,1.14.54h2.7a6.64,6.64,0,0,1,1.57,13.05A1.53,1.53,0,0,0,30,22.55l0,0V35.41a1.52,1.52,0,0,1-1.5,1.53h-17a1.53,1.53,0,0,1,0-3.06h13a1.53,1.53,0,0,0,0-3.06h-13a4.59,4.59,0,0,0,0,9.17h17a4.51,4.51,0,0,0,4.35-3.47,1.54,1.54,0,0,0,.15-.66V23.26A9.67,9.67,0,0,0,39,14.27Z"/><path class="cls-1" d="M7,26.24a1.5,1.5,0,1,0,3,0v-3.8a1.52,1.52,0,0,0-1.1-1.75A6.65,6.65,0,0,1,9.4,7.74,1.53,1.53,0,0,0,10.63,6,1.5,1.5,0,0,0,8.89,4.73,9.72,9.72,0,0,0,7,23.26Z"/><path class="cls-1" d="M12.5,19.11A1.51,1.51,0,0,0,14,17.58V11.46a1.5,1.5,0,1,0-3,0v6.11A1.51,1.51,0,0,0,12.5,19.11Z"/><path class="cls-1" d="M22,17.58V11.46a1.5,1.5,0,1,0-3,0v6.11a1.5,1.5,0,1,0,3,0Z"/><path class="cls-1" d="M29,17.58V11.46a1.5,1.5,0,1,0-3,0v6.11a1.5,1.5,0,1,0,3,0Z"/></svg>