<svg id="图层_1" data-name="图层 1" xmlns="http://www.w3.org/2000/svg" viewBox="0 0 40 40"><defs><style>.cls-1{fill:#666;}</style></defs><title>05</title><path class="cls-1" d="M32.06,11.76A11.92,11.92,0,0,0,20,0,11.92,11.92,0,0,0,7.94,11.76a11.47,11.47,0,0,0,2.41,7.06,1.53,1.53,0,0,0,2.1.29,1.44,1.44,0,0,0,.3-2,8.62,8.62,0,0,1-1.81-5.3,9.06,9.06,0,0,1,18.11,0A9,9,0,0,1,20,20.6,18.19,18.19,0,0,0,1.61,38.54,1.48,1.48,0,0,0,3.11,40a1.48,1.48,0,0,0,1.5-1.46A15.22,15.22,0,0,1,20,23.52,11.92,11.92,0,0,0,32.06,11.76Z"/><path class="cls-1" d="M30,23.5a1.52,1.52,0,0,0-2.08.43,1.44,1.44,0,0,0,.44,2,14.89,14.89,0,0,1,7,12.58,1.5,1.5,0,0,0,3,0A17.79,17.79,0,0,0,30,23.5Z"/></svg>