<svg id="图层_1" data-name="图层 1" xmlns="http://www.w3.org/2000/svg" viewBox="0 0 40 40"><defs><style>.cls-1{fill:#3897E3;}</style></defs><title>04</title><path class="cls-1" d="M33.94,23.94a1.5,1.5,0,1,0-1.4,2.65C34.74,27.76,36,29.18,36,30.5c0,3.07-6.57,6.5-16,6.5S4,33.57,4,30.5C4,29.12,5.3,28,6.38,27.23a13,13,0,0,1,1.55-.88,1.5,1.5,0,1,0-1.31-2.7,16,16,0,0,0-1.9,1.08C1.64,26.79,1,29,1,30.5,1,35.92,9.17,40,20,40s19-4.08,19-9.5C39,28,37.2,25.67,33.94,23.94Z"/><path class="cls-1" d="M18.75,31.39a1.87,1.87,0,0,0,2.5,0C24,28.91,33,20.25,33,13A13,13,0,0,0,14.92,1a1.5,1.5,0,0,0,1.17,2.76A10,10,0,0,1,30,13c0,5.52-7.44,13-10,15.46C17.44,26,10,18.52,10,13a10,10,0,0,1,.62-3.48,1.5,1.5,0,0,0-2.81-1A13,13,0,0,0,7,13C7,20.25,16,28.91,18.75,31.39Z"/><path class="cls-1" d="M16.54,10.49a1.5,1.5,0,0,0-1.85,1,5.5,5.5,0,1,0,4-3.87,1.5,1.5,0,1,0,.73,2.91,2.5,2.5,0,1,1-1.8,1.76A1.5,1.5,0,0,0,16.54,10.49Z"/></svg>